<svg width="17" height="17" viewBox="0 0 17 17" fill="none" xmlns="http://www.w3.org/2000/svg">
<g clip-path="url(#clip0_2_18)">
<path d="M0.520792 1.71528L0.701465 14.714C0.709109 15.264 1.16532 15.7077 1.71527 15.7L14.714 15.5194C15.264 15.5117 15.7077 15.0555 15.7 14.5056L15.5193 1.50681C15.5117 0.956865 15.0555 0.513163 14.5055 0.520807L1.5068 0.701479C0.956851 0.709123 0.513149 1.16533 0.520792 1.71528Z" fill="#427687"/>
<path d="M0.531737 2.5027L0.702333 14.7765C0.709456 15.289 1.14032 15.708 1.65277 15.7009L13.8891 15.5308C14.414 15.5235 14.8206 15.0928 14.8135 14.5804L14.643 2.31907C14.6358 1.79412 14.2051 1.38757 13.6926 1.39469L1.45629 1.56476C0.943493 1.54689 0.524614 1.99025 0.531737 2.5027Z" fill="#8CAFBF"/>
<path d="M6.08252 11.5139L3.04112 8.55591C2.81336 8.35906 2.8085 8.00909 3.0307 7.80598L5.98871 4.76458C6.30969 4.47259 6.81294 4.70312 6.81885 5.12808L6.84317 6.87791C6.84508 7.0154 6.95913 7.12632 7.09662 7.12441L12.8461 7.0445C13.121 7.04068 13.3491 7.26253 13.353 7.5375L13.3669 8.5374C13.3707 8.81238 13.1488 9.04048 12.8739 9.0443L7.12441 9.12422C6.98693 9.12613 6.876 9.24018 6.87791 9.37767L6.90223 11.1275C6.90814 11.5525 6.41149 11.7969 6.08252 11.5139Z" fill="#FAFAFA"/>
<path opacity="0.5" d="M1.76574 11.2364C1.47826 11.2404 1.39355 11.4416 1.44703 12.5909C1.4979 13.5528 1.617 14.0262 1.97096 14.3088C2.32492 14.5914 3.03839 14.6565 3.88848 14.6572C4.48843 14.6489 5.05087 14.6411 5.04653 14.3286C5.04062 13.9036 4.05322 13.9174 3.49841 13.575C2.40163 12.9152 2.1407 11.2312 1.76574 11.2364Z" fill="#B4E1ED"/>
</g>
<defs>
<clipPath id="clip0_2_18">
<rect width="16" height="16" fill="white" transform="translate(0.222366 16.2208) rotate(-90.7963)"/>
</clipPath>
</defs>
</svg>
