<svg width="17" height="17" viewBox="0 0 17 17" fill="none" xmlns="http://www.w3.org/2000/svg">
<g clip-path="url(#clip0_2_18)">
<path d="M15.6127 14.6078L15.6081 1.60779C15.6079 1.05779 15.1578 0.607945 14.6078 0.608137L1.60779 0.612675C1.05779 0.612867 0.607946 1.06302 0.608138 1.61302L0.612676 14.613C0.612868 15.163 1.06302 15.6129 1.61302 15.6127L14.613 15.6081C15.163 15.6079 15.6129 15.1578 15.6127 14.6078Z" fill="#427687"/>
<path d="M15.6124 13.8203L15.6081 1.54529C15.6079 1.03279 15.1828 0.607936 14.6703 0.608115L2.43279 0.612387C1.90779 0.61257 1.49544 1.03771 1.49562 1.55021L1.4999 13.8127C1.50008 14.3377 1.92522 14.7501 2.43772 14.7499L14.6752 14.7456C15.1877 14.7704 15.6126 14.3328 15.6124 13.8203Z" fill="#8CAFBF"/>
<path d="M10.1842 4.73469L13.1853 7.73364C13.4103 7.93356 13.4105 8.28356 13.1855 8.48364L10.1866 11.4847C9.86169 11.7723 9.3616 11.535 9.36146 11.11L9.36084 9.35997C9.3608 9.22247 9.24826 9.11001 9.11076 9.11006L3.36076 9.11207C3.08576 9.11216 2.86068 8.88724 2.86058 8.61224L2.86023 7.61224C2.86014 7.33724 3.08506 7.11216 3.36006 7.11207L9.11006 7.11006C9.24756 7.11001 9.36002 6.99747 9.35997 6.85997L9.35936 5.10997C9.35921 4.68497 9.85913 4.4473 10.1842 4.73469Z" fill="#FAFAFA"/>
<path opacity="0.5" d="M14.4969 5.07066C14.7844 5.07056 14.8718 4.87053 14.8339 3.72055C14.7961 2.75806 14.6834 2.2831 14.3333 1.99572C13.9832 1.70834 13.2707 1.63359 12.4207 1.62139C11.8207 1.6216 11.2582 1.6218 11.2583 1.9343C11.2584 2.3593 12.2459 2.35895 12.796 2.70876C13.8838 3.38338 14.1219 5.0708 14.4969 5.07066Z" fill="#B4E1ED"/>
</g>
<defs>
<clipPath id="clip0_2_18">
<rect width="16" height="16" fill="white" transform="translate(16.1076 0.107605) rotate(89.98)"/>
</clipPath>
</defs>
</svg>
